Coordinates
version=1
nRows=24
nColumns=24
inDegrees=yes

Units are S.I. units (second, meters, Newtons, ...)
Angles are in degrees.

endheader
time	pelvis_tilt	pelvis_list	pelvis_rotation	pelvis_tx	pelvis_ty	pelvis_tz	hip_flexion_r	hip_adduction_r	hip_rotation_r	knee_angle_r	ankle_angle_r	subtalar_angle_r	mtp_angle_r	hip_flexion_l	hip_adduction_l	hip_rotation_l	knee_angle_l	ankle_angle_l	subtalar_angle_l	mtp_angle_l	lumbar_extension	lumbar_bending	lumbar_rotation
      2.28000000	    -10.54981560	     -4.99109716	      3.06901953	      0.75511775	      1.25057599	     -0.87681120	     -5.87506272	     10.38321314	      1.18106921	    -22.03429782	     -4.34808345	      5.61791757	     20.67884879	     36.05077072	      4.92689241	     13.97341514	    -17.80999883	    -14.87884361	    -25.77032674	      0.24744125	      2.99517617	      3.43606797	     -1.49775413
      2.28500000	    -10.63926278	     -5.05948209	      3.72352127	      0.76099901	      1.25130699	     -0.87772095	     -4.96432707	     10.30101653	     -0.34295439	    -23.64102695	     -5.92730518	      6.02398565	     20.78167736	     35.96870596	      5.27604891	     14.46857445	    -18.24355233	    -14.24032879	    -25.17824604	      0.11276705	      3.08853885	      3.24066459	     -2.04300880
      2.29000000	    -10.69948742	     -5.13483514	      4.39564457	      0.76682847	      1.25214458	     -0.87869155	     -4.09292522	     10.19743192	     -1.81333137	    -25.17198000	     -7.71528597	      6.05835914	     20.81437022	     35.77085531	      5.61689788	     15.05045753	    -18.50869286	    -13.83503534	    -24.85808417	      0.09609312	      3.14104419	      3.07361751	     -2.64039665
      2.29500000	    -10.77996989	     -5.21049521	      5.07179993	      0.77263940	      1.25287215	     -0.87971263	     -3.16092041	     10.02289286	     -3.37278416	    -26.75887365	     -9.36704191	      6.21173263	     20.61981567	     35.62279990	      5.96497611	     15.55733158	    -18.84714433	    -13.21162519	    -24.45173057	      0.05828864	      3.21530217	      2.91662574	     -3.27694209
      2.30000000	    -10.89454131	     -5.26569556	      5.68188325	      0.77844242	      1.25362987	     -0.88065994	     -2.16227694	      9.77900150	     -4.84336628	    -28.38424277	    -11.03844733	      6.36440736	     19.61496009	     35.44403583	      6.26413076	     15.97647922	    -19.06849074	    -12.53048603	    -23.73640695	     -0.13466761	      3.33537567	      2.74093782	     -3.79157037
      2.30500000	    -10.94202685	     -5.31456379	      6.32334039	      0.78420189	      1.25448868	     -0.88170512	     -1.24502882	      9.49744061	     -6.30642920	    -29.94716198	    -12.64355834	      6.13744045	     19.40748948	     35.12548167	      6.58566889	     16.51746386	    -19.16688449	    -12.11183298	    -23.55008787	     -0.12468438	      3.37081658	      2.57961419	     -4.39025297
      2.31000000	    -11.06795663	     -5.38273729	      6.88788387	      0.78995767	      1.25524234	     -0.88268212	     -0.20278176	      9.18376541	     -7.69259027	    -31.58204204	    -14.13715948	      6.02987635	     17.84351062	     34.89992145	      6.83034743	     16.87745466	    -19.28072577	    -11.42731236	    -22.97170293	     -0.23653453	      3.50282379	      2.45480774	     -4.90287087
      2.31500000	    -11.14146826	     -5.43362411	      7.45066788	      0.79569190	      1.25609143	     -0.88370608	      0.77494247	      8.82339646	     -9.03839639	    -33.16839226	    -15.48506252	      5.68669956	     16.81825360	     34.55185600	      7.07973107	     17.30559921	    -19.28364550	    -10.93733220	    -22.72032283	     -0.28420173	      3.57199418	      2.32864697	     -5.43145044
      2.32000000	    -11.20030301	     -5.49378196	      7.99040868	      0.80140139	      1.25695087	     -0.88474219	      1.74182631	      8.44355560	    -10.32932487	    -34.72831250	    -16.61841214	      5.21750358	     16.16136835	     34.17274703	      7.29556425	     17.71206135	    -19.25849019	    -10.39890187	    -22.43822397	     -0.33331822	      3.63150314	      2.22696827	     -5.90675548
      2.32500000	    -11.25468005	     -5.52800397	      8.50156408	      0.80712008	      1.25785179	     -0.88574271	      2.70056767	      8.02014520	    -11.53074446	    -36.25738745	    -17.51714120	      4.64664224	     15.74266366	     33.73598076	      7.49580152	     18.05839372	    -19.13918052	     -9.94155781	    -22.21636948	     -0.33921013	      3.67006205	      2.12298716	     -6.48865807
      2.33000000	    -11.35566005	     -5.56817728	      8.89845867	      0.81283875	      1.25874789	     -0.88659809	      3.73192410	      7.60673564	    -12.53396631	    -37.78506516	    -18.32850019	      3.98936164	     14.35917998	     33.33816398	      7.60651415	     18.26174202	    -19.00176038	     -9.34104235	    -21.69710019	     -0.49022989	      3.77652170	      2.02354056	     -6.83404834
      2.33500000	    -11.39133056	     -5.61216267	      9.33584827	      0.81853869	      1.25968232	     -0.88759204	      4.66599044	      7.16605459	    -13.58282173	    -39.21563220	    -18.83795819	      3.28731091	     13.85282853	     32.85116101	      7.73891119	     18.56340929	    -18.83625818	     -8.87398547	    -21.53593054	     -0.54457553	      3.80888564	      1.96012680	     -7.27460940
      2.34000000	    -11.45748403	     -5.64334214	      9.68563941	      0.82426613	      1.26064372	     -0.88844838	      5.64044588	      6.73120935	    -14.45214247	    -40.60344453	    -19.17899879	      2.46163135	     13.16492545	     32.36073782	      7.80787294	     18.73823721	    -18.60350268	     -8.35921045	    -21.20522224	     -0.64169775	      3.87633031	      1.89226451	     -7.64551731
      2.34500000	    -11.51481854	     -5.64358018	      9.96826156	      0.83001857	      1.26165858	     -0.88920220	      6.59930528	      6.28162675	    -15.18265595	    -41.93425710	    -19.26766680	      1.66765220	     12.27082602	     31.80944357	      7.83926498	     18.83083796	    -18.28110472	     -7.84990955	    -20.76664731	     -0.85252883	      3.92958624	      1.80452788	     -7.96467216
      2.35000000	    -11.52337912	     -5.63126774	     10.25744304	      0.83573950	      1.26269948	     -0.89002151	      7.49254289	      5.80385069	    -15.91515763	    -43.18557044	    -19.07004916	      0.88373883	     12.06301847	     31.19088669	      7.88441088	     18.97186261	    -17.93655424	     -7.48362890	    -20.61473034	     -0.87351313	      3.92158406	      1.72879717	     -8.29300682
      2.35500000	    -11.58883196	     -5.65942246	     10.44547203	      0.84152327	      1.26373892	     -0.89068026	      8.45244478	      5.41960266	    -16.45979598	    -44.32204906	    -18.93360676	     -0.16983396	     11.47687081	     30.64080031	      7.82583142	     18.97184221	    -17.59969376	     -6.91503386	    -20.23178602	     -0.99992782	      3.99590887	      1.69876224	     -8.53559509
      2.36000000	    -11.61713109	     -5.64113441	     10.60016854	      0.84732505	      1.26482368	     -0.89129280	      9.35618838	      5.00035992	    -16.93311002	    -45.38537638	    -18.49952729	     -1.10154859	     10.95709340	     29.99903241	      7.76952229	     18.93972103	    -17.17692673	     -6.44390804	    -19.86684084	     -1.16009279	      4.01971812	      1.63891039	     -8.76162601
      2.36500000	    -11.62285742	     -5.58868658	     10.72061548	      0.85312098	      1.26594091	     -0.89187547	     10.22718796	      4.55637194	    -17.33703216	    -46.37202807	    -17.82158488	     -1.93115354	     10.72429373	     29.29155178	      7.71790411	     18.91311066	    -16.68411234	     -6.11658512	    -19.66044622	     -1.20383617	      4.00604855	      1.55784613	     -8.95538528
      2.37000000	    -11.65430842	     -5.55384129	     10.74600161	      0.85900404	      1.26707471	     -0.89228487	     11.12211657	      4.19573127	    -17.58078938	    -47.22481387	    -17.22744331	     -3.01251524	     10.19508752	     28.60389716	      7.58278746	     18.72237097	    -16.18029474	     -5.58101457	    -19.23285987	     -1.35050842	      4.04055929	      1.49764764	     -9.03528241
      2.37500000	    -11.66825752	     -5.47765044	     10.73980223	      0.86491092	      1.26823281	     -0.89265677	     11.98298477	      3.81121941	    -17.75330052	    -47.99247816	    -16.38209505	     -3.93682991	      9.86458146	     27.84257017	      7.45990047	     18.52655287	    -15.57885364	     -5.25183020	    -18.95307122	     -1.44838301	      4.04451981	      1.41133676	     -9.13491634
      2.38000000	    -11.67085933	     -5.38211147	     10.68442672	      0.87080310	      1.26938315	     -0.89294724	     12.83610221	      3.44375425	    -17.83406128	    -48.67583542	    -15.47274689	     -4.89604487	      9.55806222	     27.05447528	      7.33052000	     18.31885417	    -14.96019057	     -4.91832825	    -18.68804996	     -1.52100046	      4.02473774	      1.31304468	     -9.18015710
      2.38500000	    -11.67164458	     -5.27268465	     10.57890821	      0.87680044	      1.27054161	     -0.89313628	     13.66188958	      3.10625814	    -17.83271045	    -49.22922158	    -14.50000448	     -5.87961493	      9.23289435	     26.22137738	      7.17560003	     18.01526739	    -14.26842798	     -4.57923296	    -18.42522964	     -1.58964081	      4.01944363	      1.20197811	     -9.16226472
      2.39000000	    -11.64767280	     -5.16805858	     10.43073753	      0.88280071	      1.27170157	     -0.89323148	     14.45395300	      2.83325602	    -17.73690192	    -49.66270030	    -13.50596032	     -6.93381794	      8.73849987	     25.35906329	      6.99064818	     17.69143262	    -13.57997657	     -4.16087727	    -18.05358453	     -1.67584131	      3.98667390	      1.10188553	     -9.08788668
      2.39500000	    -11.65724099	     -5.01003971	     10.22379861	      0.88884861	      1.27281287	     -0.89324542	     15.28716294	      2.53134804	    -17.53091233	    -50.04315014	    -12.39819395	     -7.85441482	      8.45899893	     24.47106099	      6.83731866	     17.32009886	    -12.78653342	     -3.94321378	    -17.86618044	     -1.71013420	      3.98222985	      0.95192535	     -8.99522588
